<?xml version="1.0" encoding="utf-8"?>
<!-- Generator: Adobe Illustrator 16.0.4, SVG Export Plug-In . SVG Version: 6.00 Build 0)  -->
<!DOCTYPE svg PUBLIC "-//W3C//DTD SVG 1.1//EN" "http://www.w3.org/Graphics/SVG/1.1/DTD/svg11.dtd">
<svg version="1.1" id="Layer_1" xmlns="http://www.w3.org/2000/svg" xmlns:xlink="http://www.w3.org/1999/xlink" x="0px" y="0px"
	 width="239.763px" height="204.988px" viewBox="-109.477 -3.618 239.763 204.988"
	 enable-background="new -109.477 -3.618 239.763 204.988" xml:space="preserve">
<g>
	<rect x="-59.44" y="-0.793" stroke="#000000" stroke-width="0.75" stroke-miterlimit="10" width="66.001" height="34.333"/>
	
		<rect x="-60.877" y="-3.243" fill="#FFFFFF" stroke="#000000" stroke-width="0.75" stroke-miterlimit="10" width="66" height="34.333"/>
	<text transform="matrix(0.9504 0 0 1 -58.7048 6.7566)" font-family="'ProductusOSGiBookc'" font-size="7.98">&lt;&lt;service&gt;&gt;</text>
	<text transform="matrix(1 0 0 1 -58.7083 16.3328)" font-family="'ProductusSemibold'" font-size="7.98">Service Component</text>
	<text transform="matrix(1 0 0 1 -58.7083 25.9089)" font-family="'ProductusSemibold'" font-size="7.98">Runtime</text>
	<polyline points="6.561,26.46 6.561,19.38 -7.6,33.54 6.561,33.54 	"/>
</g>
<g>
	<rect x="-107.665" y="59.408" stroke="#000000" stroke-width="0.75" stroke-miterlimit="10" width="59.408" height="30.854"/>
	
		<rect x="-109.102" y="56.958" fill="#FFFFFF" stroke="#000000" stroke-width="0.75" stroke-miterlimit="10" width="59.179" height="31.322"/>
	<text transform="matrix(1 0 0 1 -106.9329 66.9578)" font-family="'ProductusSemibold'" font-size="7.98">Component</text>
	<text transform="matrix(1 0 0 1 -106.9329 76.5339)" font-family="'ProductusSemibold'" font-size="7.98">Description DTO</text>
</g>
<g>
	<rect x="-10.64" y="58.417" stroke="#000000" stroke-width="0.75" stroke-miterlimit="10" width="65.051" height="30.854"/>
	
		<rect x="-12.077" y="55.969" fill="#FFFFFF" stroke="#000000" stroke-width="0.75" stroke-miterlimit="10" width="64.487" height="31.316"/>
	<text transform="matrix(1 0 0 1 -9.908 65.9675)" font-family="'ProductusSemibold'" font-size="7.98">Component</text>
	<text transform="matrix(1 0 0 1 -9.908 75.5437)" font-family="'ProductusSemibold'" font-size="7.98">Configuration DTO</text>
</g>
<g>
	<rect x="-106.947" y="123.33" stroke="#000000" stroke-width="0.75" stroke-miterlimit="10" width="59.403" height="30.854"/>
	
		<rect x="-108.384" y="120.88" fill="#FFFFFF" stroke="#000000" stroke-width="0.75" stroke-miterlimit="10" width="59.178" height="31.322"/>
	<text transform="matrix(1 0 0 1 -106.2166 130.8796)" font-family="'ProductusSemibold'" font-size="7.98">Reference DTO</text>
</g>
<g>
	<rect x="-11.64" y="115.339" stroke="#000000" stroke-width="0.75" stroke-miterlimit="10" width="65.051" height="30.854"/>
	
		<rect x="-13.077" y="112.89" fill="#FFFFFF" stroke="#000000" stroke-width="0.75" stroke-miterlimit="10" width="64.487" height="31.316"/>
	<text transform="matrix(1 0 0 1 -10.908 122.8894)" font-family="'ProductusSemibold'" font-size="7.98">Satisfied</text>
	<text transform="matrix(1 0 0 1 -10.908 132.4656)" font-family="'ProductusSemibold'" font-size="7.98">Reference DTO</text>
</g>
<g>
	<rect x="26.235" y="162.808" stroke="#000000" stroke-width="0.75" stroke-miterlimit="10" width="65.051" height="30.853"/>
	
		<rect x="24.798" y="160.359" fill="#FFFFFF" stroke="#000000" stroke-width="0.75" stroke-miterlimit="10" width="64.487" height="31.321"/>
	<text transform="matrix(1 0 0 1 26.967 170.3582)" font-family="'ProductusSemibold'" font-size="7.98">Service Reference</text>
	<text transform="matrix(1 0 0 1 26.967 179.9343)" font-family="'ProductusSemibold'" font-size="7.98">DTO</text>
</g>
<line fill="none" stroke="#000000" stroke-width="0.75" stroke-miterlimit="10" x1="-48.257" y1="31.09" x2="-78.794" y2="56.97"/>
<line fill="none" stroke="#000000" stroke-width="0.75" stroke-miterlimit="10" x1="-12.077" y1="31.09" x2="17.076" y2="55.969"/>
<line fill="none" stroke="#000000" stroke-width="0.75" stroke-miterlimit="10" x1="-79.513" y1="90.262" x2="-79.513" y2="120.88"/>
<line fill="none" stroke="#000000" stroke-width="0.75" stroke-miterlimit="10" x1="20.166" y1="89.27" x2="20.166" y2="112.89"/>
<line fill="none" stroke="#000000" stroke-width="0.75" stroke-miterlimit="10" x1="46.041" y1="146.193" x2="46.041" y2="160.291"/>
<text transform="matrix(1 0 0 1 -89.4998 54.4187)" font-family="'ProductusBook'" font-size="7.98">0..*</text>
<text transform="matrix(1 0 0 1 19.1667 54.4187)" font-family="'ProductusBook'" font-size="7.98">0..*</text>
<text transform="matrix(1 0 0 1 -77.9617 118.4187)" font-family="'ProductusBook'" font-size="7.98">0..*</text>
<text transform="matrix(1 0 0 1 6.2961 111.4187)" font-family="'ProductusBook'" font-size="7.98">0..*</text>
<text transform="matrix(1 0 0 1 31.7585 158.3396)" font-family="'ProductusBook'" font-size="7.98">0..*</text>
<text transform="matrix(1 0 0 1 -46.1873 126.3162)" font-family="'ProductusBook'" font-size="7.98">1</text>
<text transform="matrix(1 0 0 1 -46.1873 67.6511)" font-family="'ProductusBook'" font-size="7.98">1</text>
<g>
	<rect x="64.86" y="115.608" stroke="#000000" stroke-width="0.75" stroke-miterlimit="10" width="65.051" height="30.854"/>
	
		<rect x="63.423" y="113.16" fill="#FFFFFF" stroke="#000000" stroke-width="0.75" stroke-miterlimit="10" width="64.487" height="31.318"/>
	<text transform="matrix(1 0 0 1 65.592 123.1589)" font-family="'ProductusSemibold'" font-size="7.98">Unsatisfied</text>
	<text transform="matrix(1 0 0 1 65.592 132.7351)" font-family="'ProductusSemibold'" font-size="7.98">Reference DTO</text>
</g>
<text transform="matrix(1 0 0 1 99.7961 111.6882)" font-family="'ProductusBook'" font-size="7.98">0..*</text>
<line fill="none" stroke="#000000" stroke-width="0.75" stroke-miterlimit="10" x1="25.236" y1="89.271" x2="95.667" y2="113.159"/>
<text transform="matrix(1 0 0 1 -57.5408 159.9324)" font-family="'ProductusBook'" font-size="7.98">1</text>
<g>
	<g>
		
			<line fill="none" stroke="#000000" stroke-width="0.75" stroke-miterlimit="10" x1="-13.519" y1="129.628" x2="-16.519" y2="129.628"/>
		
			<line fill="none" stroke="#000000" stroke-width="0.75" stroke-miterlimit="10" stroke-dasharray="6.2957,2.0986" x1="-18.618" y1="129.628" x2="-42.751" y2="129.628"/>
		
			<line fill="none" stroke="#000000" stroke-width="0.75" stroke-miterlimit="10" x1="-43.801" y1="129.628" x2="-46.801" y2="129.628"/>
	</g>
</g>
<line fill="none" stroke="#000000" stroke-width="0.75" stroke-miterlimit="10" x1="-48.257" y1="72.619" x2="-12.077" y2="72.619"/>
<line fill="none" stroke="#000000" stroke-width="0.75" stroke-miterlimit="10" x1="68.903" y1="146.193" x2="68.903" y2="159.932"/>
<text transform="matrix(1 0 0 1 71.425 158.3396)" font-family="'ProductusBook'" font-size="7.98">0..*</text>
<line fill="none" stroke="#000000" stroke-width="0.75" stroke-miterlimit="10" stroke-dasharray="6,2" x1="109.402" y1="146.462" x2="109.569" y2="200.995"/>
<line fill="none" stroke="#000000" stroke-width="0.75" stroke-miterlimit="10" stroke-dasharray="6,2" x1="109.569" y1="200.995" x2="-60.431" y2="200.995"/>
<line fill="none" stroke="#000000" stroke-width="0.75" stroke-miterlimit="10" stroke-dasharray="6,2" x1="-60.431" y1="200.995" x2="-60.431" y2="154.184"/>
</svg>
